<mxfile host="app.diagrams.net" modified="2022-11-04T07:50:42.173Z" agent="5.0 (X11; Linux x86_64) AppleWebKit/537.36 (KHTML, like Gecko) Chrome/106.0.0.0 Safari/537.36" etag="dU8O1DSW_g7tVSNV2ig5" version="20.5.1" type="github">
  <diagram id="bPO95z2WauhucXcrKmFd" name="第 1 页">
    <mxGraphModel dx="1422" dy="748" grid="1" gridSize="10" guides="1" tooltips="1" connect="1" arrows="1" fold="1" page="1" pageScale="1" pageWidth="827" pageHeight="1169" math="0" shadow="0">
      <root>
        <mxCell id="0" />
        <mxCell id="1" parent="0" />
        <mxCell id="5_0hgNwbg5_PsrPMn2TT-4" value="" style="rounded=0;whiteSpace=wrap;html=1;" vertex="1" parent="1">
          <mxGeometry x="130" y="180" width="400" height="220" as="geometry" />
        </mxCell>
        <mxCell id="5_0hgNwbg5_PsrPMn2TT-3" style="edgeStyle=orthogonalEdgeStyle;rounded=0;orthogonalLoop=1;jettySize=auto;html=1;exitX=1;exitY=0.5;exitDx=0;exitDy=0;entryX=0;entryY=0.5;entryDx=0;entryDy=0;shape=flexArrow;startArrow=block;" edge="1" parent="1" source="5_0hgNwbg5_PsrPMn2TT-1" target="5_0hgNwbg5_PsrPMn2TT-2">
          <mxGeometry relative="1" as="geometry" />
        </mxCell>
        <mxCell id="5_0hgNwbg5_PsrPMn2TT-1" value="客户端" style="rounded=1;whiteSpace=wrap;html=1;" vertex="1" parent="1">
          <mxGeometry x="160" y="260" width="100" height="100" as="geometry" />
        </mxCell>
        <mxCell id="5_0hgNwbg5_PsrPMn2TT-2" value="服务端" style="rounded=1;whiteSpace=wrap;html=1;" vertex="1" parent="1">
          <mxGeometry x="400" y="260" width="100" height="100" as="geometry" />
        </mxCell>
        <mxCell id="5_0hgNwbg5_PsrPMn2TT-5" value="openKylin社区数字看板" style="text;html=1;align=center;verticalAlign=middle;resizable=0;points=[];autosize=1;strokeColor=none;fillColor=none;" vertex="1" parent="1">
          <mxGeometry x="130" y="180" width="150" height="30" as="geometry" />
        </mxCell>
      </root>
    </mxGraphModel>
  </diagram>
</mxfile>
